<?xml version="1.0" standalone="no"?><!DOCTYPE svg PUBLIC "-//W3C//DTD SVG 1.1//EN" "http://www.w3.org/Graphics/SVG/1.1/DTD/svg11.dtd"><svg t="1688964239119" class="icon" viewBox="0 0 1024 1024" version="1.1" xmlns="http://www.w3.org/2000/svg" p-id="3140" xmlns:xlink="http://www.w3.org/1999/xlink" width="200" height="200"><path d="M228.96 172.16a76.64 76.64 0 1 0 75.84 76.64 76.32 76.32 0 0 0-75.84-76.64zM317.76 535.52C307.52 458.24 160 360.48 160 360.48l-57.6 82.24s123.84 61.92 134.08 112S66.56 753.28 66.56 753.28l128 94.4s133.28-235.04 123.2-312.16z" fill="#FC8848" p-id="3141"></path><path d="M957.44 380.96c0-66.88-66.4-152.32-174.72-171.52s-263.04 60-286.88 64-30.56-3.52-30.56-3.52l27.2-53.12L400 178.56A416 416 0 0 1 355.04 288a425.28 425.28 0 0 1-74.72 92.64L338.08 432l76.32-90.88 50.88 5.12L372 464s3.36 39.52 32 41.28 72.96-67.04 72.96-67.04l52.48 10.4 1.76 68.64H360.16v46.24l169.6 5.12v145.92s-48.96 7.36-70.56-23.2-12.96-78.72-12.96-78.72L336 609.28s-6.88 84.64 22.56 126.88 90.24 57.12 152 51.84 215.84-70.72 215.84-70.72l10.08 46.4 81.44-37.76-49.12-130.4-66.24 13.76 6.88 56.64-81.6 36v-130.4L800 564.64v-48H624.8V448h168v-54.88H517.92l40.8-80A562.88 562.88 0 0 1 679.2 272c48-6.88 69.44-10.24 113.6 17.12a108.48 108.48 0 0 1 50.88 67.04v381.76a96 96 0 0 1-60.96 53.12c-48 16-124-1.6-124-1.6l-6.72 53.12s128 25.76 210.4-8.48 95.04-132.16 95.04-132.16z" fill="#FC8848" p-id="3142"></path></svg>